<svg width="750" height="750" viewBox="0 0 750 750" fill="none" xmlns="http://www.w3.org/2000/svg">
<g clip-path="url(#clip0_4_2)">
<mask id="mask0_4_2" style="mask-type:luminance" maskUnits="userSpaceOnUse" x="0" y="0" width="750" height="750">
<path d="M750 0H0V750H750V0Z" fill="white"/>
</mask>
<g mask="url(#mask0_4_2)">
<path d="M740.141 740.141H9.86841V9.86841H740.141V740.141Z" fill="#FF0000"/>
<path d="M749.911 0C749.96 0 750 0.0394737 750 0.0888158V749.901C750 749.96 749.96 750 749.911 750H0.0888158C0.0394737 750 0 749.96 0 749.901V0.0888158C0 0.0394737 0.0394737 0 0.0888158 0H749.911ZM730.263 19.7368H19.7368V730.263H730.263V19.7368Z" fill="#757575"/>
</g>
<path fill-rule="evenodd" clip-rule="evenodd" d="M266.737 218.755H223.756V175.774H180.775V218.755H223.756V261.736H180.775V348.509H94.0013V348.51H94V391.492L181.584 391.491V478.265H224.566V521.246H267.547V564.227H353.51V651.001H396.491H397.302V564.228H483.264V521.246H526.246V564.227H569.227V521.246H526.246V518.813V478.265H569.227V391.492H656L656.811 391.491V348.51H656.002V348.509H570.038V261.737H527.056V218.755H570.038V175.774H527.056V218.755H484.075V175.774H397.302V89.0007H396.492L353.511 89V175.773H266.737V218.755ZM181.584 521.246V564.227H224.566V521.246H181.584Z" fill="black"/>
<path d="M354.32 263.358H267.547V350.132H354.32V263.358Z" fill="#FFFCFC"/>
</g>
<defs>
<clipPath id="clip0_4_2">
<rect width="750" height="750" fill="white"/>
</clipPath>
</defs>
</svg>
