<svg width="76" height="76" viewBox="0 0 76 76" fill="none" xmlns="http://www.w3.org/2000/svg">
<g clip-path="url(#clip0_3_11)">
<path d="M0.009 0H75.991C75.996 0 76 0.004 76 0.009V75.99C76 75.996 75.996 76 75.991 76H0.009C0.004 76 0 75.996 0 75.99V0.009C0 0.004 0.004 0 0.009 0Z" fill="#FDFCFD"/>
<path d="M75.99 0C75.995 0 76 0.005 76 0.01V75.991C76 75.996 75.995 76 75.99 76H0.009C0.004 76 0 75.996 0 75.991L75.99 0Z" fill="#757575"/>
<path d="M8.508 8.5H67.492L67.5 8.508V67.491L67.492 67.5H8.508L8.5 67.491V8.508L8.508 8.5Z" fill="#B9B9B9"/>
<g clip-path="url(#clip1_3_11)">
<path d="M38 62.9999C51.8071 62.9999 63 51.8071 63 38C63 24.1928 51.8071 13 38 13C24.1929 13 13 24.1928 13 38C13 51.8071 24.1929 62.9999 38 62.9999Z" fill="#FFD42A"/>
<path d="M21.0305 19.6728C18.5022 22.0099 16.4838 24.8441 15.102 27.9977C13.7202 31.1513 13.0047 34.5563 13.0003 37.9993C13.0003 44.6297 15.6342 50.9886 20.3226 55.677C25.011 60.3654 31.3699 62.9993 38.0002 62.9993C42.422 62.9962 46.7639 61.8204 50.583 59.5917C54.402 57.3631 57.5617 54.1615 59.7397 50.3133C59.2789 50.7499 58.8017 51.1688 58.3091 51.569C57.6564 52.087 56.9782 52.5719 56.2771 53.0221C55.5755 53.4729 54.8518 53.8882 54.1088 54.2666C53.366 54.6444 52.6049 54.9849 51.8282 55.2867C51.0517 55.5891 50.2605 55.8524 49.4578 56.0757C48.6543 56.2986 47.8401 56.4811 47.0184 56.6226C46.1969 56.7644 45.3688 56.865 44.5373 56.924C43.9491 56.9657 43.3596 56.9866 42.7699 56.9867C41.9365 56.9866 41.1037 56.9448 40.2744 56.8616C39.4449 56.7783 38.6201 56.6536 37.803 56.4879C36.9859 56.3221 36.1777 56.1155 35.3813 55.8689C34.5848 55.6227 33.8012 55.3368 33.0333 55.0124C32.2656 54.6877 31.5146 54.3248 30.7832 53.925C30.0519 53.5256 29.3411 53.09 28.6533 52.6196C27.9656 52.1489 27.3019 51.6442 26.6646 51.1072C26.0272 50.5703 25.417 50.0018 24.8363 49.4039C24.2552 48.8058 23.7044 48.179 23.186 47.5259C22.6681 46.8732 22.1831 46.195 21.733 45.4939C21.2828 44.7923 20.8679 44.0686 20.49 43.3256C20.1117 42.5829 19.7707 41.8217 19.4684 41.045C19.1665 40.2679 18.9037 39.4762 18.6809 38.6729C18.4581 37.87 18.2756 37.0564 18.1341 36.2352C17.9922 35.4137 17.8916 34.5857 17.8325 33.7541C17.7909 33.1659 17.77 32.5764 17.77 31.9867C17.77 31.1528 17.8118 30.3194 17.8951 29.4896C17.9779 28.6607 18.1021 27.8364 18.2672 27.0198C18.433 26.2028 18.6397 25.3945 18.8863 24.5981C19.1324 23.8017 19.4182 23.018 19.7427 22.2501C20.0674 21.4824 20.4303 20.7314 20.83 19.9999C20.896 19.8904 20.9628 19.7813 21.0305 19.6728Z" fill="#FFBC2A"/>
<path d="M25.8265 25.2767L33.8913 33.3414" stroke="#1A1A1A" stroke-width="4" stroke-linecap="round" stroke-linejoin="round"/>
<path d="M33.8913 25.2767L25.8265 33.3414" stroke="#1A1A1A" stroke-width="4" stroke-linecap="round" stroke-linejoin="round"/>
<path d="M43.4224 25.2767L51.4872 33.3414" stroke="#1A1A1A" stroke-width="4" stroke-linecap="round" stroke-linejoin="round"/>
<path d="M51.4872 25.2767L43.4224 33.3414" stroke="#1A1A1A" stroke-width="4" stroke-linecap="round" stroke-linejoin="round"/>
<path d="M38.6465 52.0574C41.5096 52.0574 43.8307 49.7363 43.8307 46.8732C43.8307 44.01 41.5096 41.6889 38.6465 41.6889C35.7833 41.6889 33.4622 44.01 33.4622 46.8732C33.4622 49.7363 35.7833 52.0574 38.6465 52.0574Z" fill="#1A1A1A"/>
</g>
</g>
<defs>
<clipPath id="clip0_3_11">
<rect width="76" height="76" fill="white"/>
</clipPath>
<clipPath id="clip1_3_11">
<rect width="50" height="50" fill="white" transform="translate(13 13)"/>
</clipPath>
</defs>
</svg>
