<svg width="750" height="750" viewBox="0 0 750 750" fill="none" xmlns="http://www.w3.org/2000/svg">
<g clip-path="url(#clip0_1_49)">
<path d="M740.141 740.141H9.86841V9.86841H740.141V740.141Z" fill="#B9B9B9"/>
<path d="M749.911 0C749.96 0 750 0.0394737 750 0.0888158V749.901C750 749.96 749.96 750 749.911 750H0.0888158C0.0394737 750 0 749.96 0 749.901V0.0888158C0 0.0394737 0.0394737 0 0.0888158 0H749.911ZM730.263 19.7368H19.7368V730.263H730.263V19.7368Z" fill="#757575"/>
</g>
<path fill-rule="evenodd" clip-rule="evenodd" d="M266.737 218.755H223.756V175.774H180.775V218.755H223.756L223.756 261.736L180.775 261.736L180.775 348.509H94.0013V348.51H94L94 391.492L181.584 391.491L181.584 478.265H224.566V521.246L267.547 521.246V564.227H353.51V651.001H396.491L397.302 651.001L397.302 564.228H483.264V521.246H526.246L526.246 564.227H569.227V521.246H526.246L526.246 518.813V478.265L569.227 478.265V391.492H656L656.811 391.491V348.51H656.002V348.509H570.038V261.737H527.056V218.755H570.038V175.774H527.056V218.755H484.075V175.774H397.302L397.302 89.0007L397.302 89.0007L396.492 89.0007V89L353.511 89L353.511 175.773L266.737 175.773V218.755ZM181.584 521.246V564.227H224.566V521.246L181.584 521.246Z" fill="black"/>
<rect x="267.547" y="263.358" width="86.7735" height="86.7735" fill="#FFFCFC"/>
<defs>
<clipPath id="clip0_1_49">
<rect width="750" height="750" fill="white"/>
</clipPath>
</defs>
</svg>
