<svg width="76" height="76" viewBox="0 0 76 76" fill="none" xmlns="http://www.w3.org/2000/svg">
<g clip-path="url(#clip0_3_11)">
<path d="M0.009 0H75.991C75.996 0 76 0.004 76 0.009V75.99C76 75.996 75.996 76 75.991 76H0.009C0.004 76 0 75.996 0 75.99V0.009C0 0.004 0.004 0 0.009 0Z" fill="#FDFCFD"/>
<path d="M75.99 0C75.995 0 76 0.005 76 0.01V75.991C76 75.996 75.995 76 75.99 76H0.009C0.004 76 0 75.996 0 75.991L75.99 0Z" fill="#757575"/>
<path d="M8.508 8.5H67.492L67.5 8.508V67.491L67.492 67.5H8.508L8.5 67.491V8.508L8.508 8.5Z" fill="#B9B9B9"/>
<g clip-path="url(#clip1_3_11)">
<path fill-rule="evenodd" clip-rule="evenodd" d="M31.5302 13.8586C44.8644 10.286 58.5688 18.2002 62.1414 31.5303C65.714 44.8644 57.7998 58.5689 44.4697 62.1414C31.1356 65.714 17.4311 57.7998 13.8585 44.4697C10.2859 31.1356 18.1961 17.4312 31.5302 13.8586Z" fill="#FBD433"/>
<path fill-rule="evenodd" clip-rule="evenodd" d="M31.6279 25.9028C33.3776 25.9028 34.7936 28.5884 34.7936 31.9046C34.7936 35.2209 33.3776 37.9064 31.6279 37.9064C29.8782 37.9064 28.4622 35.2209 28.4622 31.9046C28.4622 28.5924 29.8782 25.9028 31.6279 25.9028ZM22.1268 45.7922C22.2977 42.5654 23.97 41.1291 26.9404 41.007L24.5153 43.4199C31.3065 52.2212 45.2713 52.03 51.2812 43.4036L49.0555 41.1901C52.0259 41.3122 53.6942 42.7526 53.8691 45.9753L52.2578 44.3761C45.5277 55.7979 31.278 56.2048 23.4899 44.4372L22.1268 45.7922ZM44.3721 25.9028C46.1217 25.9028 47.5377 28.5884 47.5377 31.9046C47.5377 35.2209 46.1177 37.9064 44.3721 37.9064C42.6264 37.9064 41.2064 35.2209 41.2064 31.9046C41.2023 28.5924 42.6224 25.9028 44.3721 25.9028Z" fill="#141518"/>
</g>
</g>
<defs>
<clipPath id="clip0_3_11">
<rect width="76" height="76" fill="white"/>
</clipPath>
<clipPath id="clip1_3_11">
<rect width="50" height="50" fill="white" transform="translate(13 13)"/>
</clipPath>
</defs>
</svg>
