<svg width="76" height="76" viewBox="0 0 76 76" fill="none" xmlns="http://www.w3.org/2000/svg">
<g clip-path="url(#clip0_3_11)">
<path d="M0.009 0H75.991C75.996 0 76 0.004 76 0.009V75.99C76 75.996 75.996 76 75.991 76H0.009C0.004 76 0 75.996 0 75.99V0.009C0 0.004 0.004 0 0.009 0Z" fill="#FDFCFD"/>
<path d="M75.99 0C75.995 0 76 0.005 76 0.01V75.991C76 75.996 75.995 76 75.99 76H0.009C0.004 76 0 75.996 0 75.991L75.99 0Z" fill="#757575"/>
<path d="M8.508 8.5H67.492L67.5 8.508V67.491L67.492 67.5H8.508L8.5 67.491V8.508L8.508 8.5Z" fill="#B9B9B9"/>
<path d="M37.8438 59.4063C26.9453 59.4063 15.1875 52.5703 15.1875 37.5703C15.1875 22.5703 26.9453 15.7344 37.8438 15.7344C43.8984 15.7344 49.4844 17.7266 53.625 21.3594C58.1172 25.3437 60.5 30.9688 60.5 37.5703C60.5 44.1719 58.1172 49.7578 53.625 53.7422C49.4844 57.375 43.8594 59.4063 37.8438 59.4063Z" fill="url(#paint0_radial_3_11)"/>
<path d="M56.5508 24.5898C58.6328 27.9492 59.7188 31.9492 59.7188 36.3984C59.7188 43 57.3359 48.5859 52.8438 52.5703C48.7031 56.2031 43.0781 58.2344 37.0625 58.2344C30.0078 58.2344 22.6094 55.3633 18.2422 49.2734C22.4453 56.1719 30.3516 59.4062 37.8438 59.4062C43.8594 59.4062 49.4844 57.375 53.625 53.7422C58.1172 49.7578 60.5 44.1719 60.5 37.5703C60.5 32.5938 59.1445 28.1719 56.5508 24.5898Z" fill="#EB8F00"/>
<path d="M38 49.6446C33.5039 49.6446 30.2929 47.3008 29.3281 45.8399C28.9648 45.3672 28.8906 44.7344 29.1328 44.1914C29.3164 43.8438 29.6797 43.6289 30.0742 43.6407C30.2187 43.6407 30.3633 43.6641 30.5 43.7071C32.9336 44.4414 35.4609 44.8086 38 44.793C40.539 44.8086 43.0703 44.4414 45.5 43.7071C45.6367 43.6641 45.7812 43.6407 45.9258 43.6407C46.3203 43.6289 46.6836 43.8438 46.8672 44.1914C47.1094 44.7344 47.0351 45.3672 46.6719 45.8399C45.707 47.3086 42.4961 49.6446 38 49.6446Z" fill="#422B0D"/>
<path d="M61.4375 30.7422C61.4375 30.7422 59.7734 30.7773 59.7734 32.1094C59.7734 35.3984 59.8125 42.457 51.1797 42.457C44.2812 42.457 40.9883 38.8945 40.4336 34.9609C40.207 33.3242 39.6523 31.543 37.9844 31.543C36.3164 31.543 35.7773 33.3125 35.5508 34.9609C34.9961 38.8945 31.7031 42.457 24.8047 42.457C16.1875 42.457 16.2109 35.3984 16.2109 32.1094C16.2109 30.7773 14.5469 30.7422 14.5469 30.7422V27.4844C17.2227 27.1328 19.918 26.9687 22.6133 26.9922C27.4883 26.9922 29.4297 26.9922 33.3086 27.3828C35.6016 27.6094 37.9961 27.6367 37.9961 27.6367C37.9961 27.6367 40.3789 27.6094 42.6836 27.3828C46.5625 26.9922 48.5039 26.9922 53.3789 26.9922C56.0742 26.9687 58.7656 27.1367 61.4375 27.4844V30.7422Z" fill="#422B0D"/>
<path d="M21.25 33.3125C21.211 33.9375 20.961 34.5156 20.3477 34.6328C20.2774 34.6445 20.211 34.6524 20.1406 34.6524C19.5899 34.6485 19.1172 34.25 19.0313 33.7031C18.793 32.625 19.0547 31.4961 19.7422 30.6328C20.375 29.8672 21.3203 29.4258 22.3125 29.4297C22.9024 29.375 23.4258 29.8086 23.4805 30.3985C23.4805 30.4102 23.4844 30.4219 23.4844 30.4375C23.4844 31.1719 22.8985 31.4844 22.3125 31.6875C21.6719 31.9766 21.2578 32.6094 21.25 33.3125Z" fill="#896024"/>
<path d="M46.086 33.3125C46.0508 33.9375 45.7969 34.5156 45.1875 34.6328C45.1172 34.6445 45.0469 34.6524 44.9766 34.6524C44.4219 34.6524 43.9492 34.25 43.8594 33.7031C43.6211 32.625 43.8828 31.4961 44.5703 30.6328C45.207 29.8672 46.1485 29.4258 47.1445 29.4297C47.7344 29.375 48.2578 29.8086 48.3125 30.3985C48.3125 30.4102 48.3164 30.4219 48.3164 30.4375C48.3164 31.1719 47.7305 31.4844 47.1445 31.6875C46.5078 31.9766 46.0938 32.6094 46.086 33.3125Z" fill="#896024"/>
</g>
<defs>
<radialGradient id="paint0_radial_3_11" cx="0" cy="0" r="1" gradientUnits="userSpaceOnUse" gradientTransform="translate(37.8437 37.5703) scale(22.2499)">
<stop offset="0.5" stop-color="#FDE030"/>
<stop offset="0.92" stop-color="#F7C02B"/>
<stop offset="1" stop-color="#F4A223"/>
</radialGradient>
<clipPath id="clip0_3_11">
<rect width="76" height="76" fill="white"/>
</clipPath>
</defs>
</svg>
